<?xml version="1.0" encoding="UTF-8"?>
<svg width="17px" height="22px" viewBox="0 0 17 22" version="1.1" xmlns="http://www.w3.org/2000/svg" xmlns:xlink="http://www.w3.org/1999/xlink">
    <!-- Generator: Sketch 47.1 (45422) - http://www.bohemiancoding.com/sketch -->
    <title>Group 9</title>
    <desc>Created with Sketch.</desc>
    <defs></defs>
    <g id="Page-1" stroke="none" stroke-width="1" fill="none" fill-rule="evenodd" opacity="0.6">
        <g id="Mobile" transform="translate(-206.000000, -3787.000000)" fill-rule="nonzero" fill="#FFFFFF">
            <g id="Footer" transform="translate(0.000000, 3589.000000)">
                <g id="Group-10" transform="translate(86.000000, 191.000000)">
                    <g id="Group-8" transform="translate(112.000000, 0.000000)">
                        <g id="Group-9" transform="translate(8.000000, 7.000000)">
                            <path d="M13.7094212,11.4983573 C13.6693305,10.9831292 12.8986986,11.3206924 12.9209712,10.41016 C12.9432438,9.49962764 14.2528726,9.59734331 14.8275057,9.65508439 C15.4021387,9.71282547 15.4244113,9.93490654 15.7005915,9.84163249 C15.9945898,9.74391682 16.1237709,9.31752116 15.575865,9.08655685 C15.0279591,8.85559254 14.341963,9.09988171 13.6470579,8.89556713 C11.161436,8.17602446 13.3486051,5.04468137 13.3486051,5.04468137 C13.3486051,5.04468137 13.8386023,4.04975817 16.0124079,3.98757547 C16.8008579,3.96536736 17.4512178,3.05483498 16.59595,2.92158633 C16.039135,2.83275391 15.0502316,2.78833769 15.0502316,2.78833769 C15.0502316,2.78833769 14.6404158,2.21092691 13.7361483,2.17539394 C13.2283331,2.15318583 12.9031532,2.55293176 12.6269729,2.47742419 C11.9365224,2.29087609 8.02990861,1.32260263 7.45082105,2.83275391 C6.86727897,4.35178843 10.715984,2.16206907 12.0122492,3.1436674 C12.4977919,3.51232198 11.0901636,6.47488346 10.4398038,7.01676127 C9.37962807,7.90064393 7.82945522,9.48630278 7.23254958,11.0586368 C6.34610016,13.0218334 6.92518772,14.5586344 6.92518772,14.5586344 C6.64455298,15.3225933 6.91182416,19.1201796 2.2835782,21.074493 C0.49286128,21.8295687 0.0206821925,21.7984773 0.0206821925,21.7984773 C-0.0817717605,22.0649746 0.216681059,21.9983503 0.470588682,21.9761422 C5.83828492,21.5408633 8.07890832,15.9799533 8.07890832,15.9799533 C8.07890832,15.9799533 8.51990577,15.3936592 8.84063119,16.0332527 C9.13017497,16.6151051 7.95418177,17.12145 8.684723,18.0675153 C8.684723,18.0675153 10.0789877,17.250257 12.7338814,15.9666284 C16.3375878,14.2255128 16.9834932,15.4913749 16.9834932,15.4913749 C17.2953096,10.1614292 10.3373498,16.4241154 10.3373498,16.4241154 C9.47317299,15.3403598 13.9187836,14.2077463 13.7094212,11.4983573 Z" id="Shape"></path>
                            <path d="M10.0286432,17.8177258 C10.0640535,17.8177258 10.8696397,17.3010033 11.5866999,17 C11.5866999,17 11.661947,17.59699 12.8570474,17.5618729 C13.1004938,17.5317726 18.2748358,15.8913043 16.7035001,20 C16.7035001,20 17.4205603,18.6755853 10.4181574,18.1989967 C9.84273866,18.1638796 10.0286432,17.8177258 10.0286432,17.8177258 Z" id="Shape"></path>
                            <path d="M10.8740509,1.68247507 L12,2 C12,2 11.1526362,-0.242214533 9.73649408,0.0215754122 C9.39213164,0.0850803989 9.11741554,0.27071036 9.01681528,0.60777529 C8.93943046,0.876450234 9.1328925,1.0278852 9.51981659,1.0278852 C9.52368583,1.0327702 10.5335577,0.876450234 10.8740509,1.68247507 Z" id="Shape"></path>
                            <path d="M13.0024987,7.86884153 C13.0227195,7.99410164 13.2532369,8.06567885 13.5444168,7.91536671 C13.5444168,7.91536671 14.0094958,7.50379777 14.6322973,7.46800917 C15.2510546,7.43222056 15.0488463,6.959811 14.3249407,7.00275732 C13.1723536,7.06717681 12.9741895,7.71137167 13.0024987,7.86884153 Z" id="Shape"></path>
                            <path d="M10.7928082,20 C10.754611,20 10.7164139,19.9858824 10.6820364,19.9529412 C10.0135858,19.3129412 9.05101701,19.3129412 8.29089321,19.9529412 C8.19921999,20.0282353 8.08080875,20.0047059 8.0273327,19.9011765 C7.97385666,19.7976471 8.00059468,19.6470588 8.0922679,19.5717647 C8.99754096,18.8094118 10.1396365,18.8094118 10.9341378,19.5717647 C11.0143518,19.6470588 11.0219913,19.7976471 10.9532364,19.9011765 C10.9150392,19.9670588 10.8539237,20 10.7928082,20 Z" id="Shape"></path>
                            <path d="M10.7592998,22 C10.7140916,22 10.6688835,21.9808 10.6281962,21.936 C10.271052,21.5392 9.75567946,21.5392 9.34428556,21.936 C9.23578606,22.0384 9.09564089,22.0064 9.03234952,21.8656 C8.96905815,21.7248 9.00070383,21.52 9.10920332,21.4176 C9.68786728,20.8608 10.415718,20.8608 10.922049,21.4176 C11.0169861,21.52 11.0260277,21.7248 10.9446531,21.8656 C10.9039658,21.9552 10.8316328,22 10.7592998,22 Z" id="Shape"></path>
                        </g>
                    </g>
                </g>
            </g>
        </g>
    </g>
</svg>