<?xml version="1.0" encoding="UTF-8"?>
<svg width="93px" height="92px" viewBox="0 0 93 92" version="1.1" xmlns="http://www.w3.org/2000/svg" xmlns:xlink="http://www.w3.org/1999/xlink">
    <!-- Generator: Sketch 61.2 (89653) - https://sketch.com -->
    <title>malt_picto_color</title>
    <desc>Created with Sketch.</desc>
    <g id="Page-1" stroke="none" stroke-width="1" fill="none" fill-rule="evenodd">
        <g id="malt_picto_color" fill="#000000" fill-rule="nonzero">
            <path d="M34.561,78.975 C34.561,86.819 39.665,91.257 46.011,91.2810005 C46.027,91.2810005 45.995,91.2810005 46.011,91.2810005 C52.335,91.283 57.551,85.305 57.577,78.975 L46.003,67.257 L34.561,78.975 Z" id="Path"></path>
            <path d="M30.494,12.753 C28.3881073,10.5417118 25.4850697,9.26483615 22.432,9.207 C19.338,9.149 16.442,10.275 14.222,12.399 C9.638,16.789 9.48,24.087 13.868,28.671 L15.586,30.465 L39.918,30.569 L43.834,26.687 L30.494,12.753 Z M78.353,62.739 L76.635,60.945 L52.303,60.841 L48.387,64.723 L61.727,78.657 C66.115,83.237 73.417,83.397 77.999,79.011 C82.581,74.621 82.741,67.323 78.353,62.739" id="Shape"></path>
            <path d="M79.246,34.335 L55.92,57.255 L80.662,57.361 L80.712,57.361 C83.768,57.361 86.644,56.179 88.816,54.027 C90.9894832,51.8806341 92.2150335,48.9546507 92.2201009,45.9 C92.246,39.556 87.246,34.172 79.246,34.334 M11.558,34.0499563 L11.504,34.0499563 C8.4689813,34.0416095 5.55534771,35.2411717 3.406,37.384 C1.23167431,39.5287315 0.0052934575,42.4538983 -0.000227387467,45.508 C-0.014,48.582 0.578,57.064 13.16,57.064 L36.3,34.156 L11.558,34.0499563 Z" id="Shape"></path>
            <path d="M78.854,13.239 C74.386,8.733 67.086,8.699 62.58,13.171 L13.436,61.893 C8.93,66.363 8.898,73.663 13.366,78.169 C17.834,82.677 25.136,82.711 29.642,78.239 L78.784,29.517 C83.292,25.047 83.322,17.745 78.854,13.239" id="Path"></path>
            <path d="M58.578,12.305 C58.578,4.461 53.474,0.025 47.128,0.001 C47.112,0.001 47.144,0.001 47.128,0.001 C40.804,0 35.588,5.975 35.562,12.305 L47.136,24.023 L58.578,12.305 L58.578,12.305 Z" id="Path"></path>
        </g>
    </g>
</svg>