<?xml version="1.0" encoding="UTF-8"?>
<svg width="64px" height="48px" viewBox="0 0 64 48" version="1.1" xmlns="http://www.w3.org/2000/svg" xmlns:xlink="http://www.w3.org/1999/xlink">
    <!-- Generator: Sketch 47.1 (45422) - http://www.bohemiancoding.com/sketch -->
    <title>Shape</title>
    <desc>Created with Sketch.</desc>
    <defs></defs>
    <g id="Page-1" stroke="none" stroke-width="1" fill="none" fill-rule="evenodd">
        <g id="Desktop" transform="translate(-688.000000, -1295.000000)" fill-rule="nonzero" fill="#E24C38">
            <g id="Skills" transform="translate(221.000000, 1124.000000)">
                <g id="Back" transform="translate(342.000000, 171.000000)">
                    <g id="Group-5" transform="translate(116.000000, 0.000000)">
                        <path d="M27.7954659,5.13758048 C27.1175816,4.51299423 26.06328,4.55713166 25.4420249,5.23418315 L9.44095789,22.6010121 C8.85301404,23.2389228 8.85301404,24.2199396 9.44095789,24.8578504 L25.4411921,42.2246793 C25.7701409,42.5811099 26.2173446,42.7618235 26.6670467,42.7618235 C27.070113,42.7618235 27.4748449,42.6160867 27.7946331,42.321282 C28.4716846,41.6983613 28.5141565,40.6440597 27.890403,39.967841 L12.9311459,23.7294312 L27.8912358,7.4901887 C28.5149892,6.81396998 28.4716846,5.76050117 27.7954659,5.13758048 Z M72.5591461,22.6010121 L56.5589119,5.23418315 C55.9351585,4.55713166 54.8825224,4.51382701 54.2054709,5.13758048 C53.5284194,5.76050117 53.4859476,6.81480276 54.1097011,7.49102148 L69.0689582,23.7294312 L54.1088683,39.9686738 C53.4851148,40.6448925 53.5284194,41.6991941 54.2046382,42.3221148 C54.5252591,42.6169195 54.9291582,42.7626563 55.3322245,42.7626563 C55.7819266,42.7626563 56.2299632,42.5819427 56.5580792,42.2255121 L72.5583134,24.8586832 C73.14709,24.2199396 73.14709,23.2389228 72.5591461,22.6010121 Z M50.3580196,0.117572581 C49.5002545,-0.221369558 48.5350606,0.197519621 48.1952856,1.0527864 L30.7068706,45.1785559 C30.3679285,46.0338227 30.7868176,47.001515 31.6412516,47.3404571 C31.8427848,47.4204042 32.0501474,47.4578793 32.2541789,47.4578793 C32.9179059,47.4578793 33.5441577,47.0589769 33.8031528,46.4052433 L51.2915679,2.27947379 C51.6321756,1.4250398 51.2132864,0.457347502 50.3580196,0.117572581 Z" id="Shape"></path>
                    </g>
                </g>
            </g>
        </g>
    </g>
</svg>