<?xml version="1.0" encoding="UTF-8"?>
<svg width="38px" height="63px" viewBox="0 0 38 63" version="1.1" xmlns="http://www.w3.org/2000/svg" xmlns:xlink="http://www.w3.org/1999/xlink">
    <!-- Generator: Sketch 47.1 (45422) - http://www.bohemiancoding.com/sketch -->
    <title>noun_1193941_cc</title>
    <desc>Created with Sketch.</desc>
    <defs></defs>
    <g id="Page-1" stroke="none" stroke-width="1" fill="none" fill-rule="evenodd">
        <g id="Desktop" transform="translate(-1043.000000, -1279.000000)" fill-rule="nonzero" fill="#E1412B">
            <g id="Skills" transform="translate(221.000000, 1124.000000)">
                <g id="Mobile" transform="translate(684.000000, 155.000000)">
                    <g id="noun_1193941_cc" transform="translate(138.000000, 0.000000)">
                        <g id="noun_1234721_cc">
                            <path d="M37.8,5.6 C37.7961438,2.70210384 35.4478962,0.353856154 32.55,0.35 L5.285,0.35 C3.88712417,0.342553271 2.5438452,0.892163794 1.55210524,1.87733594 C0.560365278,2.86250808 0.00184154418,4.20210554 0,5.6 L0,57.4 C0.00385615437,60.2978962 2.35210384,62.6461438 5.25,62.65 L32.515,62.65 C33.9128758,62.6574467 35.2561548,62.1078362 36.2478948,61.1226641 C37.2396347,60.1374919 37.7981585,58.7978945 37.8,57.4 L37.8,5.6 Z M5.285,2.45 L32.515,2.45 C33.3564796,2.44064965 34.1667154,2.76839129 34.7650466,3.36014737 C35.3633777,3.95190345 35.7000519,4.75846841 35.7,5.6 L35.7,8.561 L2.1,8.561 L2.1,5.6 C2.09994805,4.75846841 2.43662229,3.95190345 3.03495344,3.36014737 C3.63328459,2.76839129 4.44352035,2.44064965 5.285,2.45 Z M35.7,10.661 L35.7,49.056 L2.1,49.056 L2.1,10.661 L35.7,10.661 Z M32.515,60.55 L5.285,60.55 C4.44352035,60.5593504 3.63328459,60.2316087 3.03495344,59.6398526 C2.43662229,59.0480966 2.09994805,58.2415316 2.1,57.4 L2.1,51.156 L35.7,51.156 L35.7,57.4 C35.7000519,58.2415316 35.3633777,59.0480966 34.7650466,59.6398526 C34.1667154,60.2316087 33.3564796,60.5593504 32.515,60.55 Z" id="Shape"></path>
                            <rect id="Rectangle-path" x="16.1" y="54.747" width="5.6" height="2.1"></rect>
                        </g>
                    </g>
                </g>
            </g>
        </g>
    </g>
</svg>