<?xml version="1.0" encoding="UTF-8"?>
<svg width="5px" height="10px" viewBox="0 0 5 10" version="1.1" xmlns="http://www.w3.org/2000/svg" xmlns:xlink="http://www.w3.org/1999/xlink">
    <!-- Generator: Sketch 47 (45396) - http://www.bohemiancoding.com/sketch -->
    <title>Shape</title>
    <desc>Created with Sketch.</desc>
    <defs></defs>
    <g id="Page-1" stroke="none" stroke-width="1" fill="none" fill-rule="evenodd" opacity="0.65">
        <g id="Mobile" transform="translate(-159.000000, -538.000000)" fill-rule="nonzero" fill="#FFFFFF">
            <g id="Home">
                <g id="scroll" transform="translate(21.000000, 500.000000)">
                    <g id="noun_496876_cc" transform="translate(134.000000, 24.000000)">
                        <path d="M5.66666667,16.6666667 L5.66666667,18 L5.66666667,21.7333333 L5.13333333,21.2 C5,21.0666667 4.83333333,21 4.66666667,21 C4.5,21 4.33333333,21.0666667 4.2,21.2 C3.93333333,21.4666667 3.93333333,21.8666667 4.2,22.1333333 L4.66666667,22.6 L5.86666667,23.8 C5.9,23.8333333 5.93333333,23.8666667 5.96666667,23.8666667 C5.96666667,23.8666667 6,23.9 6,23.9 C6.03333333,23.9 6.03333333,23.9333333 6.06666667,23.9333333 C6.1,23.9333333 6.1,23.9333333 6.13333333,23.9666667 C6.16666667,23.9666667 6.16666667,23.9666667 6.2,24 C6.23333333,24 6.3,24 6.33333333,24 C6.36666667,24 6.43333333,24 6.46666667,24 C6.5,24 6.5,24 6.53333333,23.9666667 C6.56666667,23.9666667 6.56666667,23.9666667 6.6,23.9333333 C6.63333333,23.9333333 6.63333333,23.9 6.66666667,23.9 C6.66666667,23.9 6.7,23.9 6.7,23.8666667 C6.73333333,23.8333333 6.76666667,23.8 6.8,23.8 L8,22.6 L8.46666667,22.1333333 C8.73333333,21.8666667 8.73333333,21.4666667 8.46666667,21.2 C8.33333333,21.0666667 8.16666667,21 8,21 C7.83333333,21 7.66666667,21.0666667 7.53333333,21.2 L7,21.7333333 L7,18 L7,16.6666667 L7,14.6666667 C7,14.3 6.7,14 6.33333333,14 C5.96666667,14 5.66666667,14.3 5.66666667,14.6666667 L5.66666667,16.6666667 Z" id="Shape"></path>
                    </g>
                </g>
            </g>
        </g>
    </g>
</svg>