<?xml version="1.0" encoding="UTF-8"?>
<svg width="73px" height="62px" viewBox="0 0 73 62" version="1.1" xmlns="http://www.w3.org/2000/svg" xmlns:xlink="http://www.w3.org/1999/xlink">
    <!-- Generator: Sketch 47.1 (45422) - http://www.bohemiancoding.com/sketch -->
    <title>Group</title>
    <desc>Created with Sketch.</desc>
    <defs></defs>
    <g id="Page-1" stroke="none" stroke-width="1" fill="none" fill-rule="evenodd">
        <g id="Desktop" transform="translate(-342.000000, -1285.000000)" fill-rule="nonzero" fill="#E2432D">
            <g id="Skills" transform="translate(221.000000, 1124.000000)">
                <g id="Front" transform="translate(0.000000, 161.000000)">
                    <g id="noun_942652_cc" transform="translate(121.000000, 0.000000)">
                        <g id="Group">
                            <path d="M35.9898947,0.138988919 L0.895433279,14.9574414 C0.416926767,15.1584219 0.0986637442,15.6300911 0.0986637442,16.136983 C0.0986637442,16.6507786 0.417334209,17.1152089 0.895433279,17.3164576 L35.9898947,32.1349938 C36.1513265,32.2046349 36.3296333,32.2431251 36.4981105,32.2431251 C36.6669782,32.2431251 36.8515154,32.2003451 37.0069205,32.1349938 L72.1013989,17.3164576 C72.5796847,17.114857 72.8979477,16.6507786 72.8979477,16.136983 C72.9038896,15.6304932 72.5935377,15.1656943 72.1150482,14.9574414 L37.0069205,0.138988919 C36.6830382,0.00031 36.3141844,0.00031 35.9903021,0.138988919 L35.9898947,0.138988919 Z M36.4981105,2.70139865 L68.2961126,16.136983 L36.4981105,29.5725673 L4.7001084,16.136983 L36.4981105,2.70139865 Z M62.6232317,26.1831949 C62.3144077,26.3047651 62.0495535,26.5485257 61.909003,26.8745954 C61.6278851,27.5270532 61.9399347,28.2780408 62.5961198,28.5557003 L68.3101693,30.9689414 L36.5121672,44.4045927 L4.71416514,30.9689414 L10.4145484,28.56929 C11.0755719,28.2845759 11.3825793,27.5336554 11.1016651,26.8880846 C10.8205642,26.23561 10.0523156,25.9325808 9.39832049,26.2106257 L0.909676767,29.7897516 C0.431390953,29.9907489 0.126777233,30.4554976 0.126777233,30.9692932 C0.126777233,31.4831057 0.431390953,31.9339127 0.909676767,32.1352284 L36.0180082,46.9672873 C36.1796437,47.0369451 36.3577468,47.0754186 36.526224,47.0754186 C36.6950917,47.0754186 36.8659626,47.0326722 37.0207735,46.9672873 L72.1289012,32.1352284 C72.6074077,31.9335943 72.9120044,31.4757662 72.9120044,30.9692932 C72.899951,30.4554976 72.5931472,29.9910673 72.1152519,29.7897516 L63.6129589,26.1969857 C63.2860547,26.0583068 62.9328705,26.0613565 62.6240465,26.1847532 L62.6232317,26.1831949 Z M10.3866386,41.0152538 C10.0778147,40.8936835 9.72481723,40.8894105 9.39770933,41.0274862 L0.909082581,44.6067462 C0.43057607,44.8077435 0.126183047,45.2862997 0.126183047,45.7997435 C0.126183047,46.3135392 0.430779791,46.7713841 0.909082581,46.9657122 L36.017397,61.7978046 C36.1788458,61.8674457 36.3571526,61.893117 36.5256128,61.893117 C36.6944805,61.893117 36.8653684,61.8625527 37.0199756,61.7978046 L72.128307,46.9657122 C72.6067965,46.7641116 72.9112065,46.3062668 72.9112065,45.7997435 C72.9112065,45.2932538 72.5925361,44.8080619 72.1146407,44.6067462 L63.6396633,41.0274862 C62.9856682,40.7495084 62.217827,41.0580338 61.9365054,41.7056322 C61.6554044,42.3581905 61.967437,43.1090776 62.6234354,43.3867538 L68.3099656,45.7864889 L36.5121672,59.2220732 L4.71416514,45.7864889 L10.4145484,43.3867538 C11.0755719,43.1020732 11.3825793,42.3581905 11.1016651,41.7056322 C10.9611147,41.3793781 10.6954626,41.1356343 10.3872328,41.0142986 L10.3866386,41.0152538 Z" id="Shape"></path>
                        </g>
                    </g>
                </g>
            </g>
        </g>
    </g>
</svg>