<?xml version="1.0" encoding="UTF-8"?>
<svg width="16px" height="16px" viewBox="0 0 16 16" version="1.1" xmlns="http://www.w3.org/2000/svg" xmlns:xlink="http://www.w3.org/1999/xlink">
    <!-- Generator: Sketch 47.1 (45422) - http://www.bohemiancoding.com/sketch -->
    <title>Fill 1</title>
    <desc>Created with Sketch.</desc>
    <defs></defs>
    <g id="Page-1" stroke="none" stroke-width="1" fill="none" fill-rule="evenodd" opacity="0.6">
        <g id="Mobile" transform="translate(-152.000000, -3790.000000)" fill="#FFFFFF">
            <g id="Footer" transform="translate(0.000000, 3589.000000)">
                <g id="Group-10" transform="translate(86.000000, 191.000000)">
                    <g id="Group-8" transform="translate(56.000000, 0.000000)">
                        <g id="Page-1" transform="translate(10.000000, 10.000000)">
                            <path d="M7.99926333,0 C3.58169373,0 0,3.6723364 0,8.20270944 C0,11.8267058 2.29202861,14.9008335 5.47100893,15.9859679 C5.87126677,16.0609957 6.0171276,15.8077138 6.0171276,15.5901834 C6.0171276,15.3958159 6.010252,14.8796847 6.00632309,14.1953703 C3.78108598,14.6908562 3.31158108,13.0956332 3.31158108,13.0956332 C2.94766567,12.1484695 2.42315602,11.8956911 2.42315602,11.8956911 C1.69679855,11.387113 2.47816078,11.3971839 2.47816078,11.3971839 C3.28113202,11.4550913 3.70348998,12.242632 3.70348998,12.242632 C4.41707849,13.4959496 5.57610731,13.1339024 6.03186101,12.9244287 C6.10454587,12.3941983 6.31081371,12.0326547 6.5396728,11.8277128 C4.76331379,11.6207568 2.8956076,10.9168042 2.8956076,7.77369112 C2.8956076,6.87839233 3.20746493,6.14624134 3.71920562,5.57270629 C3.63669849,5.36524672 3.36216581,4.53138013 3.79729273,3.40193401 C3.79729273,3.40193401 4.46913656,3.18138234 5.99748304,4.2428502 C6.63544001,4.06056777 7.32005279,3.96993009 8.00024556,3.96690884 C8.67945609,3.96993009 9.36406888,4.06056777 10.0030081,4.2428502 C11.5303723,3.18138234 12.2007428,3.40193401 12.2007428,3.40193401 C12.6373431,4.53138013 12.3628104,5.36524672 12.2803033,5.57270629 C12.7930262,6.14624134 13.1029191,6.87839233 13.1029191,7.77369112 C13.1029191,10.9248609 11.2322662,11.6182391 9.45001381,11.8211668 C9.73731545,12.0744487 9.99318579,12.5749701 9.99318579,13.3403549 C9.99318579,14.4365672 9.98336352,15.3212916 9.98336352,15.5901834 C9.98336352,15.809728 10.1272599,16.0650241 10.5334111,15.9849608 C13.7099358,14.8978123 16,11.8256987 16,8.20270944 C16,3.6723364 12.4178152,0 7.99926333,0" id="Fill-1"></path>
                        </g>
                    </g>
                </g>
            </g>
        </g>
    </g>
</svg>