<?xml version="1.0" encoding="UTF-8"?>
<svg width="12px" height="18px" viewBox="0 0 12 18" version="1.1" xmlns="http://www.w3.org/2000/svg" xmlns:xlink="http://www.w3.org/1999/xlink">
    <!-- Generator: Sketch 47 (45396) - http://www.bohemiancoding.com/sketch -->
    <title>Group 13</title>
    <desc>Created with Sketch.</desc>
    <defs></defs>
    <g id="Page-1" stroke="none" stroke-width="1" fill="none" fill-rule="evenodd" opacity="0.65">
        <g id="Mobile" transform="translate(-155.000000, -524.000000)" fill-rule="nonzero" fill="#FFFFFF">
            <g id="Home">
                <g id="scroll" transform="translate(21.000000, 500.000000)">
                    <g id="noun_496876_cc" transform="translate(134.000000, 24.000000)">
                        <g id="Group-13">
                            <path d="M4.33333333,18 L4.33333333,16.6641929 C2.66666667,16.4972171 1.33333333,15.0612245 1.33333333,13.3580705 L1.33333333,4.67532468 C1.33333333,2.83858998 2.83333333,1.33580705 4.66666667,1.33580705 L7.33333333,1.33580705 C9.16666667,1.33580705 10.6666667,2.83858998 10.6666667,4.67532468 L10.6666667,13.3580705 C10.6666667,15.0946197 9.33333333,16.4972171 7.66666667,16.6641929 L7.66666667,18 C10.1,17.8330241 12,15.7959184 12,13.3580705 L12,4.67532468 C12,2.1038961 9.9,0 7.33333333,0 L4.66666667,0 C2.1,0 0,2.1038961 0,4.67532468 L0,13.3580705 C0,15.8293135 1.9,17.8330241 4.33333333,18 Z" id="Shape"></path>
                            <path d="M6,7.33333333 C6.36666667,7.33333333 6.66666667,7.03333333 6.66666667,6.66666667 L6.66666667,4.66666667 C6.66666667,4.3 6.36666667,4 6,4 C5.63333333,4 5.33333333,4.3 5.33333333,4.66666667 L5.33333333,6.66666667 C5.33333333,7.03333333 5.63333333,7.33333333 6,7.33333333 Z" id="Shape"></path>
                        </g>
                    </g>
                </g>
            </g>
        </g>
    </g>
</svg>