<?xml version="1.0" encoding="UTF-8"?>
<svg width="15px" height="14px" viewBox="0 0 15 14" version="1.1" xmlns="http://www.w3.org/2000/svg" xmlns:xlink="http://www.w3.org/1999/xlink">
    <!-- Generator: Sketch 47.1 (45422) - http://www.bohemiancoding.com/sketch -->
    <title>LinkedIn</title>
    <desc>Created with Sketch.</desc>
    <defs></defs>
    <g id="Page-1" stroke="none" stroke-width="1" fill="none" fill-rule="evenodd" opacity="0.6">
        <g id="Mobile" transform="translate(-97.000000, -3790.000000)" fill-rule="nonzero" fill="#FFFFFF">
            <g id="Footer" transform="translate(0.000000, 3589.000000)">
                <g id="Group-10" transform="translate(86.000000, 191.000000)">
                    <g id="Group-8">
                        <path d="M26,18.3975549 L26,24 L22.7247548,24 L22.7247548,18.7727729 C22.7247548,17.4596509 22.2510259,16.5634964 21.0654957,16.5634964 C20.1604937,16.5634964 19.6219264,17.1674388 19.3849909,17.7516515 C19.2985871,17.9605052 19.2763466,18.2512023 19.2763466,18.5435552 L19.2763466,24 L16,24 C16,24 16.0441256,15.146793 16,14.2295348 L19.2760268,14.2295348 L19.2760268,15.6144591 C19.2693831,15.6248172 19.2607499,15.6359857 19.2544969,15.6460267 L19.2760268,15.6460267 L19.2760268,15.6144591 C19.711279,14.9496715 20.4885938,14 22.2284657,14 C24.3840494,13.9999648 26,15.3964451 26,18.3975549 Z M13.012185,10 C11.795689,10 11,10.647702 11,11.4994522 C11,12.3326412 11.7726686,13 12.9649874,13 L12.9887404,13 C14.2287967,13 15,12.3327664 15,11.4994522 C14.9766325,10.647702 14.2287967,10 13.012185,10 Z M11,24 L14,24 L14,15 L11,15 L11,24 Z" id="LinkedIn"></path>
                    </g>
                </g>
            </g>
        </g>
    </g>
</svg>