<?xml version="1.0" encoding="UTF-8"?>
<svg width="80px" height="59px" viewBox="0 0 80 59" version="1.1" xmlns="http://www.w3.org/2000/svg" xmlns:xlink="http://www.w3.org/1999/xlink">
    <!-- Generator: Sketch 47 (45396) - http://www.bohemiancoding.com/sketch -->
    <title>Logo</title>
    <desc>Created with Sketch.</desc>
    <defs></defs>
    <g id="Page-1" stroke="none" stroke-width="1" fill="none" fill-rule="evenodd">
        <g id="Mobile" transform="translate(-121.000000, -65.000000)" fill-rule="nonzero" fill="#6B9F90">
            <g id="Home">
                <g id="Logo" transform="translate(121.000000, 65.000000)">
                    <path d="M42.8317063,30.7681983 L56.7613713,56.0077015 C58.0680337,58.3663371 61.0803019,59.2413439 63.4894606,57.9620839 C65.8986193,56.682824 66.7923692,53.7337269 65.4857068,51.3750913 L51.6100414,26.6622818 C50.3033791,24.3036462 47.2717585,18.5904124 44.3737546,23.1864389 C41.4757506,27.7824654 40.9790191,27.5324287 42.8317063,30.7681983 Z" id="Line"></path>
                    <g id="Group-3">
                        <path d="M28.5292458,7.28789716 L31.7541283,11.9146422 C33.1546877,14.1933279 35.0116111,13.8014922 36.9823699,10.1972153 C38.9531288,6.59293836 39.2010216,6.66666667 38.4477162,4.93592139 L36.9823699,2.33678651 C35.5818105,0.0581007603 32.5541364,-0.680795153 30.2198706,0.686416299 C27.8856049,2.05362775 27.1286864,5.00921141 28.5292458,7.28789716 Z" id="Line"></path>
                        <path d="M28.5355709,2.46378809 L0.642972585,51.254659 C-0.695348973,53.5957057 0.123102453,56.5752411 2.47103501,57.9096377 C4.81896757,59.2440343 7.80726696,58.4279832 9.14558852,56.0869365 L37.0381868,7.29606565 C38.3765084,4.95501898 37.558057,1.97548351 35.2101244,0.641086909 C32.8621919,-0.693309691 29.8738925,0.122741425 28.5355709,2.46378809 Z" id="Line"></path>
                    </g>
                    <g id="Group-2" transform="translate(14.492754, 0.000000)">
                        <path d="M28.491081,7.43269786 L56.2549258,55.4927653 C57.623938,57.8625675 60.6560802,58.6745806 63.0274049,57.3064474 C65.3987297,55.9383142 66.2112645,52.9081188 64.8422523,50.5383166 L37.0784076,2.47824921 C35.7093954,0.108447035 32.6772531,-0.703566098 30.3059284,0.664567118 C27.9346037,2.03270033 27.1220688,5.06289568 28.491081,7.43269786 Z" id="Line"></path>
                        <path d="M28.5355709,2.46378809 L0.642972585,51.254659 C-0.695348973,53.5957057 0.123102453,56.5752411 2.47103501,57.9096377 C4.81896757,59.2440343 7.80726696,58.4279832 9.14558852,56.0869365 L37.0381868,7.29606565 C38.3765084,4.95501898 37.558057,1.97548351 35.2101244,0.641086909 C32.8621919,-0.693309691 29.8738925,0.122741425 28.5355709,2.46378809 Z" id="Line"></path>
                        <path d="M30.1431857,48.6956522 L5.04826752,48.6956522 C2.26018636,48.6956522 0,50.9017853 0,53.6231884 C0,56.3445915 2.26018636,58.5507246 5.04826752,58.5507246 L33.5606261,58.5507246 C40.0755534,58.5507246 38.3732421,56.4050328 36.9134843,53.6231884 C35.4537264,50.841344 34.4978094,48.6956522 30.1431857,48.6956522 Z" id="Line"></path>
                    </g>
                </g>
            </g>
        </g>
    </g>
</svg>